<svg width="240" height="240" viewBox="0 0 240 240" fill="none" xmlns="http://www.w3.org/2000/svg">
<mask id="path-1-inside-1_99_870" fill="white">
<circle cx="119.938" cy="119.937" r="91.813" transform="rotate(157.525 119.938 119.937)"/>
</mask>
<path d="M24.8755 159.264C31.6904 156.445 38.5053 153.625 45.3201 150.806C43.2067 142.487 42.4275 134.101 42.9005 125.961C44.6291 93.0802 67.337 66.145 94.355 58.0978C128.219 46.8995 165.576 65.4936 177.518 96.1169C190.701 126.226 177.398 165.779 145.52 181.777C120.714 195.169 85.6132 192.149 61.1603 170.099C55.0748 164.673 49.7017 158.187 45.3201 150.806C38.5053 153.625 31.6904 156.445 24.8755 159.264C27.8494 169.681 32.5949 179.802 38.997 189.005C64.1099 226.464 118.147 245.084 164.55 227.777C223.963 208.583 258.442 132.926 232.037 73.5627C232.037 73.5627 232.037 73.5627 232.037 73.5627C208.786 12.8951 130.934 -16.2921 75.3249 12.0975C30.2572 32.6318 5.16791 83.9862 13.8585 128.239C15.8293 139.275 19.6207 149.79 24.8755 159.264ZM45.3201 150.806L24.8755 159.264L45.3201 150.806Z" fill="#A50D29" mask="url(#path-1-inside-1_99_870)"/>
<path d="M77.3661 186.854C75.8679 185.853 71.8703 183.858 67.9706 182.092C63.0531 179.866 60.0657 178.332 56.4257 174.323C53.4895 171.089 50.5347 166.557 48.0127 162.774C45.8866 159.585 44.4969 156.003 42.7428 152.118C38.9616 143.744 38.4742 136.685 37.5934 132.664C36.7821 128.962 36.7125 111.479 37.4616 101.041C37.7061 97.6352 39.468 94.2694 40.5972 91.1301C41.9854 87.271 43.985 84.4825 47.7379 78.9679C50.5485 74.8381 55.0066 71.1873 64.1574 66.1658C68.4275 63.8226 71.3283 61.6412 74.9682 59.0063C79.3702 55.8198 86.3851 54.6097 90.1493 52.9798C92.0754 52.1458 93.9211 51.3499 99.8949 50.0964C114.513 47.029 126.037 49.3323 128.665 49.7087C134.54 50.5504 140.078 52.3361 144.602 53.7213C151.853 55.9412 158.658 60.6174 165.294 66.9977C171.589 73.0497 173.715 77.4208 175.604 81.1888C178.552 87.0669 180.25 90.4751 182.504 94.1151C184.516 97.3626 186.272 101.015 187.277 104.03C188.282 107.045 189.284 110.049 188.915 117.555C188.396 128.119 188.034 132.122 187.285 135.649C186.363 139.991 184.526 146.426 183.148 150.202C181.119 155.762 178.503 159.737 176.625 162.876C174.387 166.616 165.78 173.995 158.812 179.066C155.993 181.118 152.665 182.081 148.656 184.208C140.854 188.347 137.609 189.353 134.593 190.614C131.443 191.932 127.325 192.621 118.181 193.001C104.556 193.568 77.0151 186.864 74 184.978C73.2434 184.598 80.3925 190.121 79.6359 189.869C78.8793 189.617 76.5 186.322 77.3661 189.113" stroke="#A50D29" stroke-width="17" stroke-linecap="round"/>
<path d="M100 92C100 92.3494 100 101.789 99.89 116.255C99.3333 126.729 99.1133 134.522 98.78 137.241C98.6667 139.261 98.6667 142.58 98 146" stroke="#A50D29" stroke-width="17" stroke-linecap="round"/>
<path d="M127 92C127 92.4862 127 92.9723 127 101.65C127 110.327 127 127.18 126.835 136.106C126.67 145.031 126.34 145.517 126 147" stroke="#A50D29" stroke-width="17" stroke-linecap="round"/>
</svg>
