<svg width="240" height="240" viewBox="0 0 240 240" fill="none" xmlns="http://www.w3.org/2000/svg">
<mask id="path-1-inside-1_143_522" fill="white">
<circle cx="119.938" cy="119.937" r="91.813" transform="rotate(157.525 119.938 119.937)"/>
</mask>
<path d="M24.8755 159.264C31.6904 156.445 38.5053 153.625 45.3201 150.806C43.2067 142.487 42.4275 134.101 42.9005 125.961C44.6291 93.0801 67.337 66.145 94.355 58.0978C128.219 46.8995 165.576 65.4936 177.518 96.1168C190.701 126.226 177.398 165.779 145.52 181.777C120.714 195.169 85.6132 192.149 61.1603 170.099C55.0748 164.673 49.7017 158.187 45.3201 150.806C38.5053 153.625 31.6904 156.445 24.8755 159.264C27.8494 169.681 32.5949 179.802 38.997 189.005C64.1099 226.464 118.147 245.084 164.55 227.777C223.963 208.583 258.442 132.926 232.037 73.5627C232.037 73.5627 232.037 73.5627 232.037 73.5627C208.786 12.8951 130.934 -16.2921 75.3249 12.0975C30.2572 32.6318 5.16791 83.9861 13.8585 128.239C15.8293 139.275 19.6207 149.79 24.8755 159.264ZM45.3201 150.806L24.8755 159.264L45.3201 150.806Z" fill="#A50D29" mask="url(#path-1-inside-1_143_522)"/>
<path d="M77.3661 186.854C75.8679 185.853 71.8703 183.858 67.9706 182.092C63.0531 179.866 60.0657 178.332 56.4257 174.323C53.4895 171.089 50.5347 166.557 48.0127 162.774C45.8866 159.585 44.4969 156.003 42.7428 152.118C38.9616 143.744 38.4742 136.685 37.5934 132.664C36.7821 128.962 36.7125 111.479 37.4616 101.041C37.7061 97.6352 39.468 94.2694 40.5972 91.1301C41.9854 87.271 43.985 84.4825 47.7379 78.9679C50.5485 74.8381 55.0066 71.1873 64.1574 66.1658C68.4275 63.8226 71.3283 61.6412 74.9682 59.0063C79.3702 55.8197 86.3851 54.6097 90.1493 52.9798C92.0754 52.1458 93.9211 51.3499 99.8949 50.0964C114.513 47.029 126.037 49.3322 128.665 49.7087C134.54 50.5504 140.078 52.3361 144.602 53.7213C151.853 55.9412 158.658 60.6174 165.294 66.9977C171.589 73.0496 173.715 77.4208 175.604 81.1888C178.552 87.0669 180.25 90.4751 182.504 94.1151C184.516 97.3626 186.272 101.015 187.277 104.03C188.282 107.045 189.284 110.049 188.915 117.555C188.396 128.119 188.034 132.122 187.285 135.649C186.363 139.991 184.526 146.426 183.148 150.202C181.119 155.762 178.503 159.737 176.625 162.876C174.387 166.616 165.78 173.995 158.812 179.066C155.993 181.117 152.665 182.081 148.656 184.208C140.854 188.347 137.609 189.353 134.593 190.614C131.443 191.932 127.325 192.621 118.181 193.001C104.556 193.568 77.0151 186.864 74 184.978C73.2434 184.598 80.3925 190.121 79.6359 189.869C78.8793 189.617 76.5 186.322 77.3661 189.113" stroke="#A50D29" stroke-width="17" stroke-linecap="round"/>
<path d="M105 80C105 80.5176 105 94.502 104.835 115.933C104 131.451 103.67 142.996 103.17 147.024C103 150.016 103 154.933 102 160" stroke="#A50D29" stroke-width="17" stroke-linecap="round"/>
<path d="M106.015 80.2128C106.315 80.5285 106.616 80.8442 111.977 86.4782C117.339 92.1123 127.753 103.055 133.092 109.018C138.431 114.981 138.379 115.631 138.933 116.94" stroke="#A50D29" stroke-width="17" stroke-linecap="round"/>
<path d="M139.878 122.367C139.58 122.684 139.281 123.002 133.959 128.674C128.637 134.345 118.301 145.361 112.649 151.029C106.998 156.696 106.345 156.681 105.07 157.307" stroke="#A50D29" stroke-width="17" stroke-linecap="round"/>
</svg>
