<svg width="240" height="240" viewBox="0 0 240 240" fill="none" xmlns="http://www.w3.org/2000/svg">
<mask id="path-1-inside-1_99_879" fill="white">
<circle cx="119.938" cy="119.937" r="91.813" transform="rotate(157.525 119.938 119.937)"/>
</mask>
<path d="M24.8755 159.264C31.6904 156.445 38.5053 153.625 45.3201 150.806C43.2067 142.487 42.4275 134.101 42.9005 125.961C44.6291 93.0801 67.337 66.145 94.355 58.0978C128.219 46.8995 165.576 65.4936 177.518 96.1168C190.701 126.226 177.398 165.779 145.52 181.777C120.714 195.169 85.6132 192.149 61.1603 170.099C55.0748 164.673 49.7017 158.187 45.3201 150.806C38.5053 153.625 31.6904 156.445 24.8755 159.264C27.8494 169.681 32.5949 179.802 38.997 189.005C64.1099 226.464 118.147 245.084 164.55 227.777C223.963 208.583 258.442 132.926 232.037 73.5627C232.037 73.5627 232.037 73.5627 232.037 73.5627C208.786 12.8951 130.934 -16.2921 75.3249 12.0975C30.2572 32.6318 5.16791 83.9861 13.8585 128.239C15.8293 139.275 19.6207 149.79 24.8755 159.264ZM45.3201 150.806L24.8755 159.264L45.3201 150.806Z" fill="#A50D29" mask="url(#path-1-inside-1_99_879)"/>
<path d="M133.273 102.44C133.021 102.683 126.224 109.232 115.73 119.191C107.802 126.058 102.037 131.307 99.8485 132.953C98.3155 134.273 95.9252 136.577 92.9999 138.47" stroke="#A50D29" stroke-width="17" stroke-linecap="round"/>
<path d="M94.8222 99.3099C95.1588 99.6607 95.4953 100.011 101.503 106.273C107.51 112.534 119.178 124.696 125.238 131.251C131.298 137.805 131.396 138.385 132.178 139.69" stroke="#A50D29" stroke-width="17" stroke-linecap="round"/>
</svg>
