<svg width="144" height="184" viewBox="0 0 144 184" fill="none" xmlns="http://www.w3.org/2000/svg">
<path d="M34.3944 179.037C35.2294 179.016 36.0302 178.678 36.6207 178.082C37.2111 177.486 37.5428 176.684 37.5428 175.849C37.5428 175.015 37.2111 174.212 36.6207 173.617C36.0302 173.021 35.2294 172.683 34.3944 172.662C35.2793 172.686 35.6207 172.921 35.8539 173.031C36.0669 173.149 36.1623 173.225 36.2319 173.278C36.3637 173.383 36.3837 173.408 36.4014 173.422C36.4251 173.443 36.385 173.397 36.3433 173.343C36.2569 173.234 36.1339 173.073 36.0153 172.915C35.7721 172.59 35.5169 172.242 35.2611 171.893C34.7458 171.189 34.2296 170.481 33.7067 169.768C32.0521 167.513 30.3416 165.315 28.5976 163.157C27.7299 162.082 26.8468 161.01 25.9866 159.961C25.5575 159.438 25.132 158.918 24.7344 158.415C24.5376 158.166 24.3493 157.923 24.1899 157.704C24.1111 157.596 24.04 157.494 23.998 157.427C23.9588 157.372 23.923 157.274 24.053 157.521C23.1197 155.471 21.9924 153.681 20.7981 151.992C19.2283 149.765 17.592 147.422 15.8671 145.161C15.363 144.467 15.1507 144.018 14.8974 143.146C14.6495 142.293 14.2895 140.609 13.5431 139.05C13.4002 138.745 13.2511 138.452 13.0899 138.158C12.2539 136.488 11.5944 133.395 11.473 130.815C11.3689 128.786 11.0137 126.683 10.8848 125.238C10.7715 121.153 10.8116 115.901 10.8708 111.202C10.9551 106.15 10.9669 100.815 11.2812 96.2272C11.4967 93.7176 12.0046 91.3309 12.465 88.0181C12.7868 85.3044 13.0612 82.6513 13.3172 79.9584C13.4342 78.9487 13.8457 77.8643 14.7027 76.4793C14.4067 76.9468 14.6298 76.6082 15.017 76.3995C14.4563 76.7692 14.2711 76.7214 14.4027 76.7343C14.5247 76.7344 14.8741 76.7529 15.2836 76.8256C16.1054 76.9638 17.2347 77.3018 18.1556 77.6831C19.0251 78.0478 20.7794 79.1798 22.3715 80.2912C22.9731 80.7136 23.3286 81.1111 23.4369 81.3117C23.4962 81.4176 23.5105 81.4687 23.5403 81.5769C23.571 81.6954 23.6078 81.8477 23.703 82.4239C23.6895 82.3656 23.7091 82.514 23.7198 82.655C23.7323 82.8054 23.7447 82.983 23.7559 83.1704C23.7784 83.5469 23.796 83.9582 23.8098 84.3761C23.8373 85.2152 23.8504 86.0862 23.8545 86.9612C23.9529 92.3964 23.9929 97.4974 23.9426 102.765C23.935 103.81 23.9476 104.878 24.0094 106.008C24.0636 107.108 24.2161 108.395 24.206 108.701C24.2154 108.91 24.2225 109.093 24.2658 109.458C24.2777 109.552 24.292 109.663 24.3221 109.835C24.3637 110.031 24.3599 110.161 24.5813 110.849C24.6143 110.945 24.6533 111.053 24.7029 111.177C24.7277 111.239 24.7553 111.305 24.7864 111.375C24.8172 111.445 24.8508 111.521 24.9199 111.66C25.0492 111.916 25.2193 112.23 25.5189 112.635C25.6697 112.838 25.8547 113.064 26.0985 113.313C26.1638 113.379 26.2095 113.425 26.3063 113.515C26.4221 113.623 26.5498 113.734 26.6916 113.847C26.975 114.071 27.3162 114.304 27.7287 114.519C29.2599 115.56 32.707 115.247 33.6285 114.555C34.9342 113.876 35.5334 113.124 35.9248 112.613C36.0244 112.478 36.1008 112.362 36.1333 112.312C36.1754 112.248 36.2142 112.186 36.2502 112.126C36.3222 112.007 36.3832 111.898 36.4367 111.797C36.5432 111.596 36.6203 111.426 36.6828 111.278C37.048 110.346 37.0124 110.242 37.0709 110.029C37.1437 109.67 37.1556 109.548 37.1749 109.412C37.1921 109.281 37.2018 109.192 37.2108 109.108C37.228 108.943 37.2391 108.812 37.2485 108.697C37.2852 108.227 37.3025 107.886 37.3203 107.525C37.3539 106.821 37.3757 106.166 37.3951 105.504C37.5477 99.6437 37.6254 93.9518 37.6482 88.1157C37.7144 82.5585 36.8908 77.4644 36.8729 72.9715C36.7496 65.2251 36.8642 57.1347 36.9478 49.163C37.0148 44.0031 37.6596 38.8594 38.8957 33.9125C39.1235 32.9931 39.8606 31.3286 40.409 30.5584C39.9775 31.2033 39.7723 31.3083 39.7623 31.3351C39.7486 31.3504 39.8952 31.2533 40.1177 31.1376C40.5773 30.8931 41.2903 30.5825 42.2453 30.183C41.9744 30.301 41.9952 30.2781 42.0018 30.2884C42.0205 30.2916 42.0818 30.2923 42.1671 30.3048C41.568 30.2743 41.2168 30.0514 41.4704 30.2018C41.7323 30.3393 42.3041 30.8133 43.8527 31.6952C44.1213 31.8134 45.7636 33.2565 46.1022 33.8377C45.884 33.4979 46.2449 34.0742 46.356 35.9995C46.5903 38.5534 47.0106 40.5447 47.3334 42.3435C47.489 43.2908 47.6395 46.106 47.869 48.4692C48.0871 50.7766 48.2776 53.2102 48.4957 55.6579C48.9121 59.8384 48.7347 62.5745 49.1087 68.4274C49.3933 70.853 49.3816 73.147 49.7491 76.6506C49.73 76.477 49.7514 76.7596 49.7542 77.1056C49.7639 77.4846 49.7528 77.9122 49.8164 78.8056C49.83 78.9719 49.8421 79.1312 49.8803 79.4378C49.9061 79.6122 49.9094 79.7376 50.0334 80.3132C50.0526 80.3981 50.0753 80.4934 50.1049 80.6056C50.1325 80.7094 50.1732 80.8619 50.2509 81.0984C50.2889 81.2136 50.3344 81.3435 50.3933 81.4956C50.4642 81.6713 50.4831 81.739 50.6785 82.1465C50.8564 82.5016 51.0909 82.9516 51.5771 83.5803C51.6999 83.7373 51.8404 83.9054 52.0054 84.0845C52.088 84.1741 52.1767 84.2663 52.2727 84.3611C52.3251 84.4126 52.3559 84.4428 52.4354 84.5174C52.5309 84.6065 52.633 84.6976 52.7426 84.7901C53.5927 85.5118 55.0829 86.4445 57.1298 86.664C58.1322 86.7747 59.2026 86.6815 60.1345 86.424C60.6015 86.2969 61.0356 86.1335 61.4269 85.9516C61.6888 85.8298 61.9234 85.7044 62.1448 85.5734C63.0285 85.047 63.6173 84.4894 64.0447 84.0185C64.4713 83.5433 64.7439 83.1404 64.9519 82.8015C65.1571 82.4665 65.3074 82.156 65.3482 82.0703C65.6016 81.534 65.7133 81.184 65.8001 80.9038C65.844 80.7588 65.8709 80.6569 65.8876 80.5932C65.9064 80.5214 65.9226 80.4555 65.937 80.3942C65.9658 80.2717 65.9876 80.1675 66.0057 80.0747C66.1139 79.4895 66.1135 79.363 66.1343 79.1897C66.1493 79.039 66.1574 78.9341 66.1645 78.8373C66.1778 78.6533 66.1849 78.5201 66.1915 78.3875C66.2149 77.8982 66.2234 77.5328 66.2319 77.1571C66.2476 76.418 66.2541 75.7318 66.2587 75.0362C66.2841 69.0855 66.2242 63.2636 66.2451 57.5314C66.2373 54.5381 66.4033 51.7361 66.4611 48.4017C66.5544 42.9105 66.5619 37.5324 66.6452 32.265C66.679 27.7881 67.7463 22.1886 68.9545 19.1845C69.1559 18.6947 70.2523 17.1297 71.2997 16.0871C70.5293 16.9215 69.3859 17.3556 68.9763 17.4133C68.5271 17.4923 68.5935 17.4363 68.8731 17.4759C69.4834 17.535 70.7092 17.8459 72.4947 18.3096C72.0466 18.203 71.6129 17.9912 71.3975 17.8499C71.1736 17.7055 71.1367 17.65 71.1989 17.7151C71.3337 17.8424 71.7874 18.3897 72.2649 19.0636C72.0559 18.7453 72.1459 18.7011 72.9436 21.4606C72.9923 21.5451 73.1426 22.4195 73.3095 24.0157C73.4815 27.5403 73.5554 33.4447 73.5897 38.2305C73.5941 38.8708 73.6017 39.5095 73.6127 40.1474C73.6852 45.0135 74.0207 49.7919 74.1746 54.1759C74.3271 59.3856 74.237 65.0374 74.3076 70.8204C74.365 73.4995 74.3942 76.6838 75.0133 79.8907C75.0362 80.0246 75.0534 80.126 75.0946 80.3321C75.1502 80.5647 75.1388 80.6814 75.4257 81.5699C75.5465 81.9029 75.6767 82.3198 76.1353 83.1261C76.639 83.6886 77.1539 85.8399 81.6334 87.1442C83.7782 87.7238 86.8062 86.9623 88.217 85.8821C89.7328 84.8221 90.3234 83.867 90.732 83.218C91.1788 82.4371 91.1521 82.4108 91.2651 82.1687C91.3502 81.9677 91.4149 81.7949 91.4684 81.6416C91.5746 81.3356 91.6381 81.1051 91.6873 80.9119C91.74 80.7016 91.7585 80.6086 91.777 80.5207C91.7953 80.4317 91.8103 80.3521 91.8233 80.2794C91.8491 80.134 91.867 80.0149 91.8816 79.9097C91.8929 79.828 91.9008 79.7639 91.9084 79.6998C91.9227 79.5785 91.935 79.4509 91.941 79.3839C91.9911 78.7805 91.9932 78.5433 92.0056 78.2435C92.0245 77.6894 92.0338 77.2186 92.0437 76.7427C92.0625 75.7973 92.0783 74.8891 92.0968 73.9821C92.1337 72.1608 92.1793 70.3652 92.238 68.5577C92.3709 64.6689 92.5972 61.7524 93.3516 57.7811C94.2293 53.3122 93.949 47.2466 94.074 45.3492C94.2324 43.753 94.6275 41.5068 94.9981 39.3244C95.6769 35.3532 97.1659 29.7145 98.1633 27.8166C97.7346 28.5713 97.1719 29.0094 97.0092 29.1101C96.8311 29.2206 96.9714 29.1131 97.4085 28.9259C96.9397 29.1741 95.7317 29.2845 95.5583 29.2186C95.3362 29.1785 95.8047 29.255 96.4039 29.4288C97.6526 29.7809 99.3859 30.3047 101.052 30.715C100.493 30.5654 100.256 30.3027 100.356 30.3863C100.443 30.4537 100.74 30.7979 101.035 31.3079C101.466 32.0689 101.552 32.2878 101.689 32.8717C101.823 33.4554 101.928 34.6139 101.998 35.9495C102.071 37.0751 102.094 37.0734 102.121 37.5571C102.147 37.9672 102.168 38.4399 102.186 38.9135C102.221 39.8763 102.245 40.8759 102.264 41.8928C102.377 48.5064 102.428 55.2922 102.428 61.9192C102.441 66.2617 102.158 69.6274 101.657 74.5857C101.403 78.1824 101.318 81.155 101.314 84.7106C101.315 84.7534 101.315 84.7617 101.315 84.8107C101.315 84.819 101.315 84.825 101.315 84.8446C101.315 84.8579 101.315 84.8607 101.316 84.9251C101.316 84.9439 101.317 84.9658 101.318 85.0202C101.319 85.0539 101.32 85.0972 101.327 85.2349C101.332 85.3133 101.334 85.3926 101.363 85.6672C101.383 85.821 101.391 85.983 101.505 86.5082C101.58 86.7929 101.627 87.1317 102.014 88.0071C102.234 88.4545 102.499 89.0698 103.376 90.0346C104.178 90.9242 106.237 92.5493 109.201 92.4535C112.152 92.3386 113.935 90.727 114.679 89.8834C115.474 88.9618 115.723 88.3798 115.927 87.9528C116.29 87.1176 116.339 86.7875 116.411 86.5114C116.522 86.001 116.531 85.8402 116.551 85.6891C116.581 85.4186 116.583 85.3394 116.588 85.2618C116.596 85.1243 116.597 85.0849 116.598 85.0458C116.6 84.9766 116.6 84.9569 116.6 84.9373C116.602 84.7973 116.601 84.8387 116.601 84.8227C116.601 84.8103 116.601 84.7962 116.601 84.7793C116.601 84.7238 116.6 84.6566 116.6 84.6098C116.599 84.4925 116.599 84.3839 116.598 84.2721C116.597 84.0389 116.596 83.8273 116.595 83.5948C116.594 83.1428 116.593 82.6924 116.593 82.2434C116.593 81.344 116.595 80.4428 116.602 79.546C116.615 77.7646 116.639 75.9495 116.706 74.3259C116.816 71.8255 117.03 69.4222 117.434 67.2768C117.857 65.0123 118.343 63.7819 119.562 60.4962C119.852 59.6393 120.576 58.0371 121.229 56.6912C120.945 57.2676 120.453 57.8 120.159 58.0206C119.855 58.2553 119.751 58.2752 119.804 58.2476C119.917 58.1756 120.53 57.9489 121.221 57.7568C122.146 57.4115 124.032 57.617 125.509 58.3831C124.994 58.0116 125.573 58.3438 126.112 59.2799C126.715 60.2288 127.253 61.4479 128.393 63.4509C128.603 63.8004 128.657 63.9136 128.746 64.1852C128.83 64.4507 128.926 64.9674 128.997 65.6651C129.142 67.0767 129.225 68.9294 129.344 70.7426C129.641 76.2154 129.569 82.3811 129.54 88.3327C129.54 92.6272 129.258 96.2961 129.104 101.305C129.1 103.991 128.626 107.802 128.58 111.449C128.487 114.894 128.118 118.902 127.683 122.496C127.369 125.363 126.423 127.913 125.429 132.008C124.854 134.575 124.188 137.444 123.554 139.477C122.209 143.68 121.107 147.523 119.959 151.548C119.644 152.671 119.298 153.724 118.91 154.655C118.499 155.684 118.185 156.034 117.15 158.218C117.111 158.415 116.537 159.307 115.839 160.188C115.129 161.116 114.272 162.098 113.288 163.586C111.471 166.711 111.166 167.67 110.096 168.744C108.547 170.307 105.891 171.565 102.22 173.117C102.302 173.216 100.439 173.465 98.5373 173.632C96.98 173.855 95.2609 173.885 93.4696 173.958C87.5788 174.147 81.5786 174.273 75.6714 174.347C75.5158 174.349 75.3658 174.35 75.2169 174.352C72.5918 174.389 70.1681 174.324 67.3683 174.306C62.7497 174.287 57.8306 174.415 53.6563 174.294C50.3566 174.057 46.7446 174.084 44.009 173.854C41.7006 173.597 39.5038 173.551 37.7648 173.287L38.2079 173.401C37.1751 173.083 36.0647 172.753 35.2949 172.467L35.4928 172.558C35.4596 172.571 35.1066 172.337 34.7066 172.018C34.0513 171.5 33.2194 171.248 32.3844 171.328C31.5495 171.409 30.7816 171.814 30.2478 172.455C29.7139 173.097 29.456 173.926 29.5291 174.762C29.602 175.597 30.0014 176.369 30.6302 176.919C30.6302 176.919 30.6302 176.919 30.6302 176.919C31.1067 177.319 31.6292 177.821 32.6159 178.34L32.8139 178.431C34.0795 178.97 35.0662 179.298 36.1145 179.682L36.5576 179.796C39.0436 180.285 41.1483 180.401 43.0894 180.724C46.859 181.212 49.802 181.276 53.022 181.664C58.1295 182.055 62.5074 182.108 67.1852 182.343C69.645 182.47 72.4657 182.667 75.1066 182.745C75.2595 182.75 75.4133 182.756 75.5727 182.761C81.5954 182.952 87.5493 183.085 93.5893 183.147C95.4299 183.149 97.326 183.201 99.3714 183.013C100.982 182.825 102.771 183.194 106.159 181.913C109.078 180.762 113.306 179.401 117.044 176.037C119.55 173.834 121.223 170.291 121.896 169.345C122.822 167.926 124.888 166.422 126.892 162.516C126.984 162.316 128.149 160.457 128.771 159.054C129.458 157.572 129.979 156.136 130.434 154.726C131.683 150.885 133.009 146.861 134.296 143.285C135.42 140.074 136.05 137.549 136.794 134.747C137.483 132.167 139.016 128.229 139.601 124.24C140.24 120.08 140.732 116.29 141.003 111.914C141.139 108.708 141.675 105.735 141.86 101.574C142.085 97.9407 142.567 92.9912 142.691 88.6209C142.894 82.5276 143.165 76.6292 142.998 70.0578C142.928 68.3014 142.914 66.6043 142.762 64.4593C142.67 62.458 141.978 58.9152 140.489 56.4819C139.215 54.656 138.706 50.0656 132.31 45.9052C128.004 43.5841 122.966 42.4187 117.48 43.794C116.399 44.0812 115.242 44.3817 113.687 45.0778C112.24 45.729 109.659 47.2102 108.18 50.1723C107.341 51.8392 106.589 53.2668 105.711 55.5635C104.983 57.3592 103.425 61.2114 102.844 64.3167C102.168 67.5296 101.863 70.5355 101.666 73.4959C101.539 75.5301 101.481 77.3944 101.427 79.2802C101.401 80.2212 101.379 81.1575 101.361 82.0899C101.351 82.5554 101.343 83.0217 101.335 83.4902C101.331 83.7314 101.327 83.9509 101.324 84.1937C101.322 84.3102 101.32 84.4235 101.319 84.546C101.318 84.5947 101.317 84.6658 101.316 84.7205C101.316 84.7369 101.316 84.7498 101.316 84.758C101.316 84.7428 101.315 84.8319 101.316 84.6904C101.317 84.671 101.317 84.6516 101.319 84.5826C101.32 84.5435 101.321 84.5042 101.328 84.3667C101.334 84.289 101.336 84.2099 101.366 83.9395C101.386 83.7883 101.395 83.6276 101.506 83.1171C101.577 82.841 101.627 82.511 101.989 81.6757C102.194 81.2488 102.443 80.6667 103.238 79.7451C103.982 78.9016 105.765 77.29 108.716 77.1751C111.68 77.0792 113.739 78.7043 114.541 79.5939C115.418 80.5587 115.683 81.174 115.903 81.6215C116.29 82.4968 116.337 82.8356 116.411 83.1203C116.526 83.6455 116.533 83.8075 116.554 83.9614C116.583 84.2359 116.585 84.3152 116.59 84.3936C116.597 84.5312 116.598 84.5744 116.599 84.6081C116.6 84.6624 116.6 84.6842 116.601 84.7028C116.601 84.7665 116.601 84.768 116.601 84.7793C116.602 84.7949 116.602 84.7943 116.602 84.7936C116.602 84.7707 116.602 84.7503 116.602 84.7106C116.655 81.9674 116.819 78.6337 117.067 75.9529C117.548 72.0975 118.105 66.6316 118.136 62.087C118.254 55.2557 118.31 48.5533 118.296 41.7074C118.292 40.6321 118.283 39.5677 118.258 38.4447C118.245 37.8879 118.229 37.3096 118.199 36.687C118.184 36.378 118.164 36.0372 118.14 35.7115C118.114 35.3693 118.099 35.1673 118.104 35.1854C118.031 33.6542 117.983 31.94 117.56 29.7069C117.156 27.4695 116.149 24.9954 115.149 23.2711C113.481 20.4428 110.869 16.5188 105.09 14.8921C103.778 14.5507 102.587 14.172 100.899 13.6718C100.028 13.4305 99.0053 13.0985 97.2635 12.8949C95.5677 12.6553 92.7924 12.9525 90.9173 13.8229C89.447 14.506 86.1978 15.688 83.8384 19.6615C80.3994 26.601 79.8306 30.7771 78.6151 36.457C78.2258 38.6748 77.7902 40.8218 77.468 43.6673C77.1422 49.6724 77.4402 51.5953 76.8096 54.9474C76.0153 58.8116 75.5159 63.8668 75.3894 67.9622C75.3175 69.8456 75.2598 71.7212 75.2124 73.596C75.1887 74.5261 75.1679 75.4605 75.1456 76.3624C75.1344 76.8081 75.1226 77.2579 75.1084 77.6202C75.1031 77.7804 75.0869 78.0123 75.0978 77.8607C75.0996 77.8407 75.1043 77.7894 75.1124 77.7201C75.1209 77.6521 75.1308 77.5533 75.173 77.3118C75.1835 77.2528 75.196 77.1863 75.2118 77.1096C75.2278 77.0334 75.2437 76.9529 75.2918 76.761C75.3368 76.5843 75.396 76.3684 75.4978 76.0749C75.5492 75.9278 75.6116 75.7608 75.6945 75.5651C75.805 75.3286 75.7774 75.3052 76.2181 74.5349C76.6217 73.8943 77.2072 72.9452 78.7177 71.8887C80.1234 70.8121 83.1458 70.0516 85.2856 70.6301C89.7549 71.9325 90.2577 74.0707 90.7518 74.6163C91.1999 75.4046 91.3192 75.7959 91.4287 76.0957C91.6817 76.8832 91.6451 76.8823 91.6774 77.0007C91.694 77.0836 91.695 77.093 91.6959 77.0963C91.3096 75.1846 91.2977 73.1283 91.2521 70.5979C91.2015 65.1748 91.316 59.5926 91.1538 53.5989C90.9855 48.7224 90.6732 44.255 90.6102 39.8556C90.6002 39.2758 90.5932 38.6957 90.5891 38.1136C90.5193 32.8038 90.5847 28.595 90.1789 22.0505C90.0093 20.785 89.9149 18.756 89.0466 16.093C88.8403 15.6638 88.2617 12.2221 86.0351 9.16257C84.5124 7.3959 82.9494 3.80797 76.5919 1.87336C75.229 1.54751 73.3183 0.952181 70.6928 0.654406C68.3112 0.441142 63.3998 0.0968898 59.1494 4.34438C57.0597 6.58683 55.2889 8.65003 53.5652 12.2935C50.7046 19.7026 50.0764 25.3556 49.8956 32.0418C49.851 37.5192 49.8888 42.9103 49.8484 48.1644C49.8303 51.0059 49.6808 54.3517 49.7226 57.5375C49.7635 63.4645 49.8904 69.3171 49.9368 75.0294C49.9406 75.6737 49.9421 76.3078 49.9371 76.8974C49.9347 77.1853 49.9295 77.4838 49.9239 77.6535C49.9227 77.6936 49.9213 77.7224 49.9231 77.7028C49.9243 77.6908 49.9259 77.6677 49.9329 77.5983C49.9455 77.5073 49.9357 77.4662 50.0289 76.9593C50.0448 76.878 50.0644 76.7842 50.0909 76.6712C50.1042 76.6147 50.1193 76.5534 50.1369 76.4859C50.1526 76.426 50.178 76.3298 50.22 76.1907C50.3034 75.9221 50.4116 75.5814 50.6615 75.0525C50.7017 74.968 50.8501 74.6613 51.0537 74.3289C51.26 73.9927 51.5311 73.592 51.9559 73.1187C52.3817 72.6496 52.9689 72.0934 53.8509 71.568C54.0719 71.4372 54.3061 71.3121 54.5676 71.1904C54.9583 71.0088 55.3917 70.8457 55.8581 70.7188C56.7888 70.4616 57.8579 70.3685 58.859 70.4791C60.9034 70.6983 62.3911 71.6298 63.2386 72.3493C63.348 72.4416 63.4497 72.5324 63.5449 72.6212C63.6241 72.6955 63.6549 72.7256 63.7071 72.7769C63.8027 72.8714 63.8911 72.9633 63.9733 73.0525C64.1377 73.2308 64.2774 73.3981 64.3996 73.5543C64.883 74.1795 65.1148 74.6249 65.2899 74.9744C65.4821 75.3752 65.5001 75.4405 65.5691 75.6114C65.6263 75.7591 65.6701 75.8842 65.7065 75.9943C65.7806 76.2202 65.8182 76.3615 65.8436 76.4567C65.8706 76.5595 65.8909 76.6447 65.9077 76.7187C66.0138 77.2142 66.0051 77.2551 66.0202 77.3482C66.0372 77.4886 66.034 77.4836 66.034 77.4841C66.0334 77.5555 66.0162 77.1566 66.0047 76.711C65.9861 76.2327 65.9859 75.6886 65.87 74.6958C65.6172 72.7665 65.5149 69.586 65.1296 66.5805C64.9162 64.0391 64.8663 58.3391 64.3618 54.1329C64.112 51.7533 63.8868 49.3565 63.6077 46.8404C63.3377 44.6828 63.3498 42.9382 62.7625 39.3961C62.3755 37.4919 62.0274 35.7798 61.8999 34.5762C61.6424 32.3032 61.3581 28.4673 58.5809 24.6559C56.289 21.7852 54.6573 20.2281 51.1613 18.1752C50.9994 18.3056 48.1914 15.4972 43.2847 15.0815C41.044 14.9558 38.8508 15.1299 36.1989 16.2458C35.2816 16.6569 34.1169 17.1579 32.7886 17.902C31.464 18.7326 29.8382 19.4186 27.7964 22.3187C26.0887 25.0815 25.1517 27.3268 24.3664 30.4737C22.9728 36.6295 22.3387 42.9102 22.4066 49.167C22.515 57.2174 22.5943 65.1886 22.9441 73.4592C23.1566 78.9867 24.0799 83.8039 24.1226 88.2821C24.2602 93.9124 24.3494 99.7043 24.3723 105.314C24.3728 105.923 24.3706 106.522 24.3611 107.076C24.3565 107.349 24.349 107.624 24.3419 107.792C24.3406 107.829 24.339 107.86 24.3411 107.85C24.3423 107.844 24.344 107.831 24.3509 107.781C24.3602 107.724 24.3612 107.678 24.4179 107.398C24.4361 107.314 24.4465 107.261 24.4911 107.09C24.5134 107.006 24.5407 106.909 24.5781 106.793C24.6202 106.666 24.6442 106.577 24.7746 106.261C24.835 106.118 24.9099 105.954 25.0144 105.756C25.0667 105.657 25.1267 105.55 25.1976 105.432C25.2331 105.374 25.2714 105.313 25.3131 105.249C25.3451 105.2 25.4206 105.086 25.5192 104.952C25.9069 104.445 26.5023 103.698 27.8044 103.02C28.7228 102.33 32.1642 102.017 33.691 103.056C34.1024 103.27 34.4424 103.502 34.7246 103.726C34.8659 103.838 34.993 103.949 35.1082 104.056C35.2046 104.146 35.25 104.191 35.315 104.257C35.5573 104.504 35.741 104.729 35.8905 104.93C36.1873 105.332 36.3548 105.641 36.4815 105.892C36.5492 106.028 36.5819 106.102 36.6117 106.17C36.6421 106.239 36.6687 106.302 36.6927 106.362C36.7406 106.482 36.778 106.585 36.8092 106.676C37.018 107.326 37.0066 107.418 37.0412 107.575C37.0642 107.708 37.073 107.779 37.08 107.835C37.1038 108.044 37.1001 108.068 37.1022 108.12C36.9933 106.527 36.86 105.934 36.8015 105.137C36.7341 104.365 36.6959 103.545 36.6753 102.681C36.561 97.3463 36.3391 91.8392 36.0729 86.6922C35.9656 84.6382 36.0016 83.2196 35.534 80.2072C35.3164 78.8701 34.5251 76.2309 33.1978 74.4845C31.8903 72.6627 30.3546 71.43 28.9086 70.4856C27.0289 69.3164 25.3137 68.0844 22.3162 66.8904C20.5584 66.2554 18.8992 65.7958 16.8754 65.5234C14.8716 65.3814 12.4235 64.8318 8.76762 67.0348C7.59867 67.8763 6.32562 68.7723 5.06033 70.8696C3.80579 73.069 2.61148 75.9639 2.42423 79.1343C2.27486 81.7359 2.10136 84.3799 1.89559 86.9506C1.67666 89.2396 1.15379 92.42 1.00815 95.5494C0.849669 101.185 1.0718 106.087 1.1907 111.27C1.3463 116.246 1.43901 120.678 1.86711 126.248C2.17243 128.417 2.50806 129.895 2.65981 131.5C3.09064 135.177 3.66233 138.413 5.77219 142.335C5.85384 142.468 5.92736 142.595 5.99797 142.728C6.36342 143.391 6.57119 144.146 7.06224 145.657C7.5385 147.156 8.50273 148.939 9.55725 150.176C11.283 152.238 12.9106 154.354 14.6303 156.57C15.6933 157.93 16.6516 159.334 17.3578 160.711C21.8879 166.736 24.9622 169.355 28.4543 173.819C29.007 174.5 29.5512 175.174 30.1099 175.864C30.3891 176.208 30.6665 176.551 30.9691 176.915C31.1203 177.097 31.2781 177.286 31.4715 177.505C31.5738 177.62 31.6784 177.738 31.8549 177.914C31.9522 178.009 32.0471 178.105 32.2667 178.28C32.3794 178.367 32.5201 178.476 32.7799 178.62C33.0625 178.757 33.454 179.012 34.3944 179.037Z" fill="#A50D29"/>
</svg>
