<svg width="146" height="139" viewBox="0 0 146 139" fill="none" xmlns="http://www.w3.org/2000/svg">
<path d="M36.5165 124.994C35.9266 122.623 33.5492 119.048 31.5591 116.661C28.6784 113.207 24.6117 109.717 22.3237 106.633C20.6431 104.369 18.4508 100.994 17.3545 97.5946C16.4135 94.677 14.8758 91.246 13.8778 87.4714C12.841 83.5501 12.6831 79.5319 11.992 76.6421C11.2314 73.462 10.5024 70.3918 9.70693 66.3193C9.05993 63.0067 8.51228 51.9924 9.69799 43.3856C10.4112 38.2083 13.6603 34.4511 16.2492 31.8533C18.7486 29.3452 20.417 27.0866 22.8034 25.594C23.8959 24.9107 25.9762 24.8939 28.3565 25.1889C29.395 25.3175 29.9504 26.0737 30.3526 26.6725C32.8202 30.3465 31.5472 37.7878 31.8481 41.3658C32.134 44.7656 32.7389 48.7154 32.9415 54.2864C33.4536 68.3699 32.3456 31.9129 33.0368 25.9992C33.6555 20.7058 36.7071 14.1928 38.3963 11.3953C40.8326 7.36067 51.7817 11.7737 54.88 13.6655C57.3068 15.1472 58.1571 18.7211 58.6606 25.7609C58.8119 27.8764 59.1581 29.4521 58.9615 30.6467C58.5452 33.1762 58.3597 23.5235 59.1552 20.4371C60.1544 16.5601 62.1254 14.1809 64.8066 12.3874C68.4431 9.95499 72.8385 9.2116 76.8216 9.00306C78.3307 8.92405 79.4105 10.3914 80.5992 11.5771C83.6231 14.5934 82.9915 22.0578 83.5843 26.6725C83.744 27.9153 84.1831 29.4521 84.1831 30.3518C84.1831 34.0574 87.1504 22.7251 89.635 20.2345C93.3155 16.5452 101.844 19.3289 105.422 21.1134C106.777 21.7894 108.011 22.5046 109.003 23.6933C110.895 25.9607 110.4 30.4352 110.894 33.8165C111.067 34.997 110.996 36.7749 110.996 36.2118C110.996 28.4709 112.974 24.9059 115.158 22.1233C116.115 20.9038 117.937 20.7231 119.722 20.9197C122.554 21.2319 124.688 23.2971 127.569 25.8771C129.942 28.0023 132.04 30.2445 133.039 32.6308C134.062 35.077 134.424 38.7769 135.422 43.052C136.06 45.7838 137.01 48.906 137.311 54.6648C137.622 60.6209 137.415 69.3669 136.125 73.4395C135.212 76.3212 133.649 81.4624 131.561 87.0334C127.554 97.722 126.297 103.127 124.804 107.995C123.788 111.309 122.126 113.661 120.535 116.146C118.614 119.145 116.37 122.003 113.984 123.796C111.774 125.457 108.434 125.59 105.642 126.183C102.814 126.783 99.2935 127.377 94.8277 128.366C90.2416 129.382 80.6916 129.165 70.5117 129.659C61.553 130.095 54.8443 130.356 50.2296 129.764C47.7347 129.443 45.0726 128.569 42.4837 127.482C41.295 126.984 40.0974 126.388 39.007 125.497C38.5065 125 38.1133 124.41 37.7081 123.802" stroke="#A50D29" stroke-width="17" stroke-linecap="round"/>
</svg>
