<svg width="1920" height="1080" viewBox="0 0 1920 1080" fill="none" xmlns="http://www.w3.org/2000/svg">
<g clip-path="url(#clip0_95_828)">
<rect width="1920" height="1080" fill="#F4FAFF"/>
<g filter="url(#filter0_n_95_828)">
<rect x="287" y="-207" width="1346" height="1375" fill="#F4FAFF"/>
<rect x="287.5" y="-206.5" width="1345" height="1374" stroke="black"/>
</g>
<path d="M287.5 926.5L0 1080" stroke="black"/>
<path d="M1632.5 926.5L1920 1080" stroke="black"/>
<g filter="url(#filter1_n_95_828)">
<path d="M1922 0H1633V1149.96L1922 1341V0Z" fill="#F4FAFF"/>
</g>
<g filter="url(#filter2_n_95_828)">
<path d="M-3 0H285V1149.96L-3 1341V0Z" fill="#F4FAFF"/>
</g>
<g filter="url(#filter3_f_95_828)">
<rect x="1798" y="-89" width="356" height="1258" fill="#151515" fill-opacity="0.45"/>
</g>
<g filter="url(#filter4_f_95_828)">
<rect x="-196" y="-90" width="356" height="1258" fill="#151515" fill-opacity="0.45"/>
</g>
<g filter="url(#filter5_f_95_828)">
<rect x="211" y="87" width="356" height="1486" transform="rotate(-90 211 87)" fill="#151515" fill-opacity="0.45"/>
</g>
<path d="M683.834 613.2C674.334 613.2 666.734 610.55 661.034 605.25C655.334 599.85 652.484 592.65 652.484 583.65V535.2C652.484 526.2 655.334 519.05 661.034 513.75C666.734 508.45 674.334 505.8 683.834 505.8C693.334 505.8 700.934 508.5 706.634 513.9C712.434 519.3 715.334 526.5 715.334 535.5V541.05C715.334 541.55 715.134 542 714.734 542.4C714.434 542.7 714.034 542.85 713.534 542.85H692.234C691.734 542.85 691.284 542.7 690.884 542.4C690.584 542 690.434 541.55 690.434 541.05V535.2C690.434 532.8 689.834 530.85 688.634 529.35C687.434 527.85 685.834 527.1 683.834 527.1C681.934 527.1 680.384 527.85 679.184 529.35C677.984 530.85 677.384 532.8 677.384 535.2V583.8C677.384 586.2 677.984 588.15 679.184 589.65C680.384 591.15 681.934 591.9 683.834 591.9C685.834 591.9 687.434 591.15 688.634 589.65C689.834 588.15 690.434 586.2 690.434 583.8V574.2C690.434 573.7 690.184 573.45 689.684 573.45H685.784C685.284 573.45 684.834 573.3 684.434 573C684.134 572.6 683.984 572.15 683.984 571.65V555.75C683.984 555.25 684.134 554.85 684.434 554.55C684.834 554.15 685.284 553.95 685.784 553.95H713.534C714.034 553.95 714.434 554.15 714.734 554.55C715.134 554.85 715.334 555.25 715.334 555.75V583.65C715.334 592.65 712.434 599.85 706.634 605.25C700.934 610.55 693.334 613.2 683.834 613.2ZM768.274 612C767.074 612 766.424 611.45 766.324 610.35L764.374 597.3C764.374 596.8 764.074 596.55 763.474 596.55H747.274C746.674 596.55 746.374 596.8 746.374 597.3L744.574 610.35C744.474 611.45 743.824 612 742.624 612H721.324C720.024 612 719.524 611.35 719.824 610.05L741.574 508.65C741.774 507.55 742.424 507 743.524 507H767.974C769.074 507 769.724 507.55 769.924 508.65L791.524 610.05L791.674 610.65C791.674 611.55 791.124 612 790.024 612H768.274ZM749.674 576.6C749.674 577.1 749.874 577.35 750.274 577.35H760.324C760.724 577.35 760.924 577.1 760.924 576.6L755.524 542.4C755.424 542 755.274 541.8 755.074 541.8C754.874 541.8 754.724 542 754.624 542.4L749.674 576.6ZM847.896 508.2C848.296 507.4 849.046 507 850.146 507H870.996C871.496 507 871.896 507.2 872.196 507.6C872.596 507.9 872.796 508.3 872.796 508.8V610.2C872.796 610.7 872.596 611.15 872.196 611.55C871.896 611.85 871.496 612 870.996 612H849.696C849.196 612 848.746 611.85 848.346 611.55C848.046 611.15 847.896 610.7 847.896 610.2V545.85C847.896 545.45 847.796 545.25 847.596 545.25C847.396 545.15 847.196 545.25 846.996 545.55L836.496 563.85C836.096 564.65 835.796 565.05 835.596 565.05C835.396 565.05 835.046 564.65 834.546 563.85L824.046 545.55C823.846 545.25 823.646 545.1 823.446 545.1C823.246 545.1 823.146 545.3 823.146 545.7V610.2C823.146 610.7 822.946 611.15 822.546 611.55C822.246 611.85 821.846 612 821.346 612H800.046C799.546 612 799.096 611.85 798.696 611.55C798.396 611.15 798.246 610.7 798.246 610.2V508.8C798.246 508.3 798.396 507.9 798.696 507.6C799.096 507.2 799.546 507 800.046 507H821.046C822.046 507 822.796 507.4 823.296 508.2L835.296 529.95C835.596 530.35 835.896 530.35 836.196 529.95L847.896 508.2ZM940.239 526.5C940.239 527 940.039 527.45 939.639 527.85C939.339 528.15 938.939 528.3 938.439 528.3H908.289C907.789 528.3 907.539 528.55 907.539 529.05V547.95C907.539 548.45 907.789 548.7 908.289 548.7H924.789C925.289 548.7 925.689 548.9 925.989 549.3C926.389 549.6 926.589 550 926.589 550.5V568.35C926.589 568.85 926.389 569.3 925.989 569.7C925.689 570 925.289 570.15 924.789 570.15H908.289C907.789 570.15 907.539 570.4 907.539 570.9V589.95C907.539 590.45 907.789 590.7 908.289 590.7H938.439C938.939 590.7 939.339 590.9 939.639 591.3C940.039 591.6 940.239 592 940.239 592.5V610.2C940.239 610.7 940.039 611.15 939.639 611.55C939.339 611.85 938.939 612 938.439 612H884.439C883.939 612 883.489 611.85 883.089 611.55C882.789 611.15 882.639 610.7 882.639 610.2V508.8C882.639 508.3 882.789 507.9 883.089 507.6C883.489 507.2 883.939 507 884.439 507H938.439C938.939 507 939.339 507.2 939.639 507.6C940.039 507.9 940.239 508.3 940.239 508.8V526.5ZM1009.48 613.2C999.779 613.2 992.029 610.4 986.229 604.8C980.529 599.2 977.679 591.65 977.679 582.15V536.85C977.679 527.45 980.529 519.95 986.229 514.35C992.029 508.65 999.779 505.8 1009.48 505.8C1019.08 505.8 1026.78 508.65 1032.58 514.35C1038.48 519.95 1041.43 527.45 1041.43 536.85V582.15C1041.43 591.65 1038.48 599.2 1032.58 604.8C1026.78 610.4 1019.08 613.2 1009.48 613.2ZM1009.48 591.9C1011.68 591.9 1013.38 591.15 1014.58 589.65C1015.88 588.05 1016.53 585.9 1016.53 583.2V535.8C1016.53 533.1 1015.88 531 1014.58 529.5C1013.38 527.9 1011.68 527.1 1009.48 527.1C1007.28 527.1 1005.58 527.9 1004.38 529.5C1003.18 531 1002.58 533.1 1002.58 535.8V583.2C1002.58 585.9 1003.18 588.05 1004.38 589.65C1005.58 591.15 1007.28 591.9 1009.48 591.9ZM1071.36 612C1070.26 612 1069.61 611.45 1069.41 610.35L1048.11 508.95L1047.96 508.35C1047.96 507.45 1048.51 507 1049.61 507H1072.86C1074.06 507 1074.71 507.55 1074.81 508.65L1083.36 568.5C1083.46 568.9 1083.61 569.1 1083.81 569.1C1084.11 569 1084.26 568.8 1084.26 568.5L1092.21 508.65C1092.31 507.55 1092.96 507 1094.16 507H1116.81C1118.11 507 1118.61 507.65 1118.31 508.95L1096.86 610.35C1096.66 611.45 1096.01 612 1094.91 612H1071.36ZM1183.99 526.5C1183.99 527 1183.79 527.45 1183.39 527.85C1183.09 528.15 1182.69 528.3 1182.19 528.3H1152.04C1151.54 528.3 1151.29 528.55 1151.29 529.05V547.95C1151.29 548.45 1151.54 548.7 1152.04 548.7H1168.54C1169.04 548.7 1169.44 548.9 1169.74 549.3C1170.14 549.6 1170.34 550 1170.34 550.5V568.35C1170.34 568.85 1170.14 569.3 1169.74 569.7C1169.44 570 1169.04 570.15 1168.54 570.15H1152.04C1151.54 570.15 1151.29 570.4 1151.29 570.9V589.95C1151.29 590.45 1151.54 590.7 1152.04 590.7H1182.19C1182.69 590.7 1183.09 590.9 1183.39 591.3C1183.79 591.6 1183.99 592 1183.99 592.5V610.2C1183.99 610.7 1183.79 611.15 1183.39 611.55C1183.09 611.85 1182.69 612 1182.19 612H1128.19C1127.69 612 1127.24 611.85 1126.84 611.55C1126.54 611.15 1126.39 610.7 1126.39 610.2V508.8C1126.39 508.3 1126.54 507.9 1126.84 507.6C1127.24 507.2 1127.69 507 1128.19 507H1182.19C1182.69 507 1183.09 507.2 1183.39 507.6C1183.79 507.9 1183.99 508.3 1183.99 508.8V526.5ZM1233.55 612C1232.45 612 1231.75 611.5 1231.45 610.5L1221.25 570.75C1221.15 570.35 1220.9 570.15 1220.5 570.15H1218.25C1217.75 570.15 1217.5 570.4 1217.5 570.9V610.2C1217.5 610.7 1217.3 611.15 1216.9 611.55C1216.6 611.85 1216.2 612 1215.7 612H1194.4C1193.9 612 1193.45 611.85 1193.05 611.55C1192.75 611.15 1192.6 610.7 1192.6 610.2V508.8C1192.6 508.3 1192.75 507.9 1193.05 507.6C1193.45 507.2 1193.9 507 1194.4 507H1226.65C1232.45 507 1237.6 508.4 1242.1 511.2C1246.6 513.9 1250.05 517.75 1252.45 522.75C1254.95 527.65 1256.2 533.25 1256.2 539.55C1256.2 545.15 1255.15 550.2 1253.05 554.7C1251.05 559.1 1248.2 562.65 1244.5 565.35C1244.3 565.45 1244.15 565.6 1244.05 565.8C1243.95 565.9 1243.95 566.05 1244.05 566.25L1256.95 609.9L1257.1 610.5C1257.1 611.5 1256.55 612 1255.45 612H1233.55ZM1218.25 528.3C1217.75 528.3 1217.5 528.55 1217.5 529.05V550.35C1217.5 550.85 1217.75 551.1 1218.25 551.1H1222.45C1225.15 551.1 1227.3 550.1 1228.9 548.1C1230.5 546.1 1231.3 543.35 1231.3 539.85C1231.3 536.15 1230.5 533.3 1228.9 531.3C1227.3 529.3 1225.15 528.3 1222.45 528.3H1218.25Z" fill="#A50D29"/>
</g>
<defs>
<filter id="filter0_n_95_828" x="287" y="-207" width="1346" height="1375" filterUnits="userSpaceOnUse" color-interpolation-filters="sRGB">
<feFlood flood-opacity="0" result="BackgroundImageFix"/>
<feBlend mode="normal" in="SourceGraphic" in2="BackgroundImageFix" result="shape"/>
<feTurbulence type="fractalNoise" baseFrequency="2 2" stitchTiles="stitch" numOctaves="3" result="noise" seed="2036" />
<feColorMatrix in="noise" type="luminanceToAlpha" result="alphaNoise" />
<feComponentTransfer in="alphaNoise" result="coloredNoise1">
<feFuncA type="discrete" tableValues="0 0 0 0 0 0 0 0 0 0 0 0 1 1 1 1 1 1 1 1 1 1 1 1 1 1 1 1 1 1 1 1 1 1 1 1 1 1 0 0 0 0 0 0 0 0 0 0 0 0 0 0 0 0 0 0 0 0 0 0 0 0 0 0 0 0 0 0 0 0 0 0 0 0 0 0 0 0 0 0 0 0 0 0 0 0 0 0 0 0 0 0 0 0 0 0 0 0 0 0 "/>
</feComponentTransfer>
<feComposite operator="in" in2="shape" in="coloredNoise1" result="noise1Clipped" />
<feFlood flood-color="rgba(0, 0, 0, 0.25)" result="color1Flood" />
<feComposite operator="in" in2="noise1Clipped" in="color1Flood" result="color1" />
<feMerge result="effect1_noise_95_828">
<feMergeNode in="shape" />
<feMergeNode in="color1" />
</feMerge>
</filter>
<filter id="filter1_n_95_828" x="1633" y="0" width="289" height="1341" filterUnits="userSpaceOnUse" color-interpolation-filters="sRGB">
<feFlood flood-opacity="0" result="BackgroundImageFix"/>
<feBlend mode="normal" in="SourceGraphic" in2="BackgroundImageFix" result="shape"/>
<feTurbulence type="fractalNoise" baseFrequency="2 2" stitchTiles="stitch" numOctaves="3" result="noise" seed="6659" />
<feColorMatrix in="noise" type="luminanceToAlpha" result="alphaNoise" />
<feComponentTransfer in="alphaNoise" result="coloredNoise1">
<feFuncA type="discrete" tableValues="0 0 0 0 0 0 0 0 0 0 0 0 1 1 1 1 1 1 1 1 1 1 1 1 1 1 1 1 1 1 1 1 1 1 1 1 1 1 0 0 0 0 0 0 0 0 0 0 0 0 0 0 0 0 0 0 0 0 0 0 0 0 0 0 0 0 0 0 0 0 0 0 0 0 0 0 0 0 0 0 0 0 0 0 0 0 0 0 0 0 0 0 0 0 0 0 0 0 0 0 "/>
</feComponentTransfer>
<feComposite operator="in" in2="shape" in="coloredNoise1" result="noise1Clipped" />
<feFlood flood-color="rgba(0, 0, 0, 0.25)" result="color1Flood" />
<feComposite operator="in" in2="noise1Clipped" in="color1Flood" result="color1" />
<feMerge result="effect1_noise_95_828">
<feMergeNode in="shape" />
<feMergeNode in="color1" />
</feMerge>
</filter>
<filter id="filter2_n_95_828" x="-3" y="0" width="288" height="1341" filterUnits="userSpaceOnUse" color-interpolation-filters="sRGB">
<feFlood flood-opacity="0" result="BackgroundImageFix"/>
<feBlend mode="normal" in="SourceGraphic" in2="BackgroundImageFix" result="shape"/>
<feTurbulence type="fractalNoise" baseFrequency="2 2" stitchTiles="stitch" numOctaves="3" result="noise" seed="1262" />
<feColorMatrix in="noise" type="luminanceToAlpha" result="alphaNoise" />
<feComponentTransfer in="alphaNoise" result="coloredNoise1">
<feFuncA type="discrete" tableValues="0 0 0 0 0 0 0 0 0 0 0 0 1 1 1 1 1 1 1 1 1 1 1 1 1 1 1 1 1 1 1 1 1 1 1 1 1 1 0 0 0 0 0 0 0 0 0 0 0 0 0 0 0 0 0 0 0 0 0 0 0 0 0 0 0 0 0 0 0 0 0 0 0 0 0 0 0 0 0 0 0 0 0 0 0 0 0 0 0 0 0 0 0 0 0 0 0 0 0 0 "/>
</feComponentTransfer>
<feComposite operator="in" in2="shape" in="coloredNoise1" result="noise1Clipped" />
<feFlood flood-color="rgba(0, 0, 0, 0.25)" result="color1Flood" />
<feComposite operator="in" in2="noise1Clipped" in="color1Flood" result="color1" />
<feMerge result="effect1_noise_95_828">
<feMergeNode in="shape" />
<feMergeNode in="color1" />
</feMerge>
</filter>
<filter id="filter3_f_95_828" x="1498" y="-389" width="956" height="1858" filterUnits="userSpaceOnUse" color-interpolation-filters="sRGB">
<feFlood flood-opacity="0" result="BackgroundImageFix"/>
<feBlend mode="normal" in="SourceGraphic" in2="BackgroundImageFix" result="shape"/>
<feGaussianBlur stdDeviation="150" result="effect1_foregroundBlur_95_828"/>
</filter>
<filter id="filter4_f_95_828" x="-496" y="-390" width="956" height="1858" filterUnits="userSpaceOnUse" color-interpolation-filters="sRGB">
<feFlood flood-opacity="0" result="BackgroundImageFix"/>
<feBlend mode="normal" in="SourceGraphic" in2="BackgroundImageFix" result="shape"/>
<feGaussianBlur stdDeviation="150" result="effect1_foregroundBlur_95_828"/>
</filter>
<filter id="filter5_f_95_828" x="-89" y="-569" width="2086" height="956" filterUnits="userSpaceOnUse" color-interpolation-filters="sRGB">
<feFlood flood-opacity="0" result="BackgroundImageFix"/>
<feBlend mode="normal" in="SourceGraphic" in2="BackgroundImageFix" result="shape"/>
<feGaussianBlur stdDeviation="150" result="effect1_foregroundBlur_95_828"/>
</filter>
<clipPath id="clip0_95_828">
<rect width="1920" height="1080" fill="white"/>
</clipPath>
</defs>
</svg>
