<svg width="663" height="338" viewBox="0 0 663 338" fill="none" xmlns="http://www.w3.org/2000/svg">
<mask id="path-1-inside-1_95_804" fill="white">
<path d="M178 149C202.301 149 222 168.699 222 193V294C222 318.301 202.301 338 178 338H44C19.6995 338 6.12127e-07 318.301 0 294V193C6.12127e-07 168.699 19.6995 149 44 149H178ZM138.974 217.812L138.922 217.829C136.225 219.036 133.528 220.245 130.832 221.454C114.473 228.791 98.1305 236.163 81.8037 243.569C81.388 243.76 81.3874 244.242 81.8037 244.431C89.6813 248.044 97.5632 251.648 105.448 255.245C116.563 260.315 127.685 265.369 138.814 270.406C139.145 270.556 139.447 270.363 139.446 270C139.404 255.622 139.338 241.243 139.247 226.865C139.228 223.91 139.208 220.955 139.188 218C139.187 217.867 139.09 217.788 138.974 217.812Z"/>
</mask>
<path d="M178 143.375C178 147.125 178 150.875 178 154.625C188.914 155.831 198.475 161.731 204.257 169.856C209.232 176.765 211.413 185.078 210.717 193C208.587 226.667 207.372 260.333 207.073 294C207.025 297.676 206.322 301.26 204.997 304.623C200.848 315.461 189.682 323.19 178 323.083C133.333 323.223 88.6667 323.543 44 324.042C28.0429 324.721 13.0126 310.495 13.0438 294C12.5288 260.333 11.912 226.667 11.1936 193C10.228 175.586 25.6351 158.758 44 158.576C76.2255 157.755 108.451 156.841 140.676 155.833C153.118 155.444 165.559 155.042 178 154.625C178 150.875 178 147.125 178 143.375C165.559 142.958 153.118 142.556 140.676 142.167C108.451 141.159 76.2255 140.245 44 139.424C15.4906 138.103 -11.3678 163.539 -11.1936 193C-11.912 226.667 -12.5288 260.333 -13.0438 294C-14.1524 324.379 13.0829 352.418 44 351.958C88.6667 352.457 133.333 352.777 178 352.917C201.632 353.279 224.47 337.728 232.909 315.619C235.623 308.747 236.983 301.332 236.927 294C236.628 260.333 235.413 226.667 233.283 193C232.674 179.692 226.869 166.905 217.754 157.948C207.136 147.308 192.023 142.018 178 143.375ZM178 154.625L178 143.375L178 154.625H178ZM143.555 232.096C140.501 222.574 137.446 213.051 134.392 203.529C134.375 203.535 134.358 203.54 134.34 203.546L132.793 204.138C130.092 205.347 127.393 206.557 124.694 207.768C124.673 207.777 124.653 207.786 124.632 207.795C108.275 215.132 91.9329 222.503 75.6069 229.909L75.5584 229.931C71.962 231.389 66.444 236.503 66.4917 243.984C66.4169 251.473 71.99 256.648 75.5989 258.087L75.5504 258.065C83.4379 261.683 91.3289 265.291 99.2232 268.892C110.351 273.968 121.486 279.028 132.629 284.072C135.742 285.581 141.876 286.556 147.342 283.029C152.851 279.55 154.562 273.439 154.446 269.959C154.404 255.561 154.338 241.166 154.247 226.77C154.246 226.7 154.246 226.63 154.245 226.56C154.227 223.671 154.207 220.782 154.187 217.894C154.187 214.96 153.186 210.424 149.288 206.816C145.457 203.121 139.471 202.22 135.84 203.144C137.929 212.923 140.018 222.702 142.107 232.481C138.583 233.381 132.718 232.504 128.968 228.886C125.152 225.353 124.188 220.931 124.188 218.106C124.208 220.988 124.228 223.87 124.246 226.751C124.246 226.821 124.247 226.891 124.247 226.96C124.338 241.321 124.404 255.682 124.446 270.044C124.336 266.865 125.922 261.076 131.167 257.763C136.372 254.405 142.162 255.36 145.003 256.742C133.884 251.709 122.775 246.662 111.673 241.598C103.797 238.005 95.925 234.405 88.057 230.796L88.0085 230.774C91.2762 232.066 96.5619 236.912 96.4917 244.016C96.5359 251.113 91.3047 255.898 88.0491 257.207L88.0006 257.229C104.288 249.841 120.591 242.487 136.909 235.168C136.93 235.159 136.95 235.15 136.97 235.141C139.664 233.933 142.357 232.726 145.051 231.52L143.503 232.112C143.521 232.107 143.538 232.101 143.555 232.096ZM134.392 203.529L143.555 232.096L142.107 232.481L135.84 203.144L134.392 203.529Z" fill="#F4FAFF" mask="url(#path-1-inside-1_95_804)"/>
<mask id="path-3-inside-2_95_804" fill="white">
<path d="M485 149C460.699 149 441 168.699 441 193V294C441 318.301 460.699 338 485 338H619C643.301 338 663 318.301 663 294V193C663 168.699 643.301 149 619 149H485ZM524.026 217.812L524.078 217.829C526.775 219.036 529.472 220.245 532.168 221.454C548.527 228.791 564.869 236.163 581.196 243.569C581.612 243.76 581.613 244.242 581.196 244.431C573.319 248.044 565.437 251.648 557.552 255.245C546.437 260.315 535.315 265.369 524.186 270.406C523.855 270.556 523.553 270.363 523.554 270C523.596 255.622 523.662 241.243 523.753 226.865C523.772 223.91 523.792 220.955 523.812 218C523.813 217.867 523.91 217.788 524.026 217.812Z"/>
</mask>
<path d="M485 143.375C485 147.125 485 150.875 485 154.625C474.086 155.831 464.525 161.731 458.743 169.856C453.768 176.765 451.587 185.078 452.283 193C454.413 226.667 455.628 260.333 455.927 294C455.975 297.676 456.678 301.26 458.003 304.623C462.152 315.461 473.318 323.19 485 323.083C529.667 323.223 574.333 323.543 619 324.042C634.957 324.721 649.987 310.495 649.956 294C650.471 260.333 651.088 226.667 651.806 193C652.772 175.586 637.365 158.758 619 158.576C586.775 157.755 554.549 156.841 522.324 155.833C509.882 155.444 497.441 155.042 485 154.625C485 150.875 485 147.125 485 143.375C497.441 142.958 509.882 142.556 522.324 142.167C554.549 141.159 586.775 140.245 619 139.424C647.509 138.103 674.368 163.539 674.194 193C674.912 226.667 675.529 260.333 676.044 294C677.152 324.379 649.917 352.418 619 351.958C574.333 352.457 529.667 352.777 485 352.917C461.368 353.279 438.53 337.728 430.091 315.619C427.377 308.747 426.017 301.332 426.073 294C426.372 260.333 427.587 226.667 429.717 193C430.326 179.692 436.131 166.905 445.246 157.948C455.864 147.308 470.977 142.018 485 143.375ZM485 154.625L485 143.375L485 154.625H485ZM519.445 232.096C522.499 222.574 525.554 213.051 528.608 203.529C528.625 203.535 528.642 203.54 528.66 203.546L530.207 204.138C532.908 205.347 535.607 206.557 538.306 207.768C538.327 207.777 538.347 207.786 538.368 207.795C554.725 215.132 571.067 222.503 587.393 229.909L587.442 229.931C591.038 231.389 596.556 236.503 596.508 243.984C596.583 251.473 591.01 256.648 587.401 258.087L587.45 258.065C579.562 261.683 571.671 265.291 563.777 268.892C552.649 273.968 541.514 279.028 530.371 284.072C527.258 285.581 521.124 286.556 515.658 283.029C510.149 279.55 508.438 273.439 508.554 269.959C508.596 255.561 508.662 241.166 508.753 226.77C508.754 226.7 508.754 226.63 508.755 226.56C508.773 223.671 508.793 220.782 508.813 217.894C508.813 214.96 509.814 210.424 513.712 206.816C517.543 203.121 523.529 202.22 527.16 203.144C525.071 212.923 522.982 222.702 520.893 232.481C524.417 233.381 530.282 232.504 534.032 228.886C537.848 225.353 538.812 220.931 538.812 218.106C538.792 220.988 538.772 223.87 538.754 226.751C538.754 226.821 538.753 226.891 538.753 226.96C538.662 241.321 538.596 255.682 538.554 270.044C538.664 266.865 537.078 261.076 531.833 257.763C526.628 254.405 520.838 255.36 517.997 256.742C529.116 251.709 540.225 246.662 551.327 241.598C559.203 238.005 567.075 234.405 574.943 230.796L574.991 230.774C571.724 232.066 566.438 236.912 566.508 244.016C566.464 251.113 571.695 255.898 574.951 257.207L574.999 257.229C558.712 249.841 542.409 242.487 526.091 235.168C526.07 235.159 526.05 235.15 526.03 235.141C523.336 233.933 520.643 232.726 517.949 231.52L519.497 232.112C519.479 232.107 519.462 232.101 519.445 232.096ZM528.608 203.529L519.445 232.096L520.893 232.481L527.16 203.144L528.608 203.529Z" fill="#F4FAFF" mask="url(#path-3-inside-2_95_804)"/>
<mask id="path-5-inside-3_95_804" fill="white">
<path d="M397 0C421.301 0 441 19.6995 441 44V105C441 129.301 421.301 149 397 149H266C241.699 149 222 129.301 222 105V44C222 19.6995 241.699 9.98733e-07 266 0H397ZM331.5 45.5C331.306 45.5 331.129 45.6128 331.047 45.7891L304.547 102.789C304.475 102.944 304.487 103.125 304.578 103.269C304.67 103.413 304.829 103.5 305 103.5H358C358.171 103.5 358.33 103.413 358.422 103.269C358.513 103.125 358.525 102.944 358.453 102.789L331.953 45.7891C331.871 45.6128 331.694 45.5 331.5 45.5Z"/>
</mask>
<path d="M397 -3.75C397 -1.25 397 1.25 397 3.75C407.106 4.12672 416.759 8.45426 423.64 15.4309C431.224 23.0149 435.325 33.6027 434.908 44C434.299 64.3333 433.762 84.6667 433.295 105C433.193 124.35 415.579 140.812 397 139.984C353.333 139.328 309.667 139 266 139C247.918 139.443 231.477 123.243 231.726 105C231.565 84.6667 231.333 64.3333 231.03 44C230.204 25.4279 246.661 7.82456 266 7.72508C298.659 6.97927 331.318 6.05007 363.976 4.9375C374.984 4.5625 385.992 4.16667 397 3.75C397 1.25 397 -1.25 397 -3.75C385.992 -4.16667 374.984 -4.5625 363.976 -4.9375C331.318 -6.05007 298.659 -6.97927 266 -7.72508C238.465 -8.96429 212.656 15.6979 212.97 44C212.667 64.3333 212.435 84.6667 212.274 105C211.383 133.631 237.208 159.697 266 159C266 159 266 159 266 159C309.667 159 353.333 158.672 397 158.016C425.295 158.328 449.946 132.524 448.705 105C448.238 84.6667 447.701 64.3333 447.092 44C446.812 30.2911 440.483 16.9845 430.377 8.21034C421.196 0.0951689 408.946 -4.22636 397 -3.75ZM397 3.75V-3.75V3.75ZM331.5 55.5C331.5 48.8333 331.5 42.1667 331.5 35.5C327.501 35.4603 323.627 37.9376 321.981 41.5688C320.781 44.1502 319.583 46.7272 318.385 49.3041C310.75 65.7272 303.114 82.1502 295.479 98.5733C293.979 101.744 294.223 105.664 296.142 108.639C298.027 111.632 301.46 113.52 305 113.5C322.667 113.5 340.333 113.5 358 113.5C361.54 113.52 364.973 111.632 366.853 108.646C368.777 105.664 369.021 101.744 367.521 98.5733C359.886 82.1502 352.25 65.7272 344.615 49.3041C343.417 46.7272 342.219 44.1502 341.021 41.5733C339.373 37.9375 335.499 35.4603 331.5 35.5C331.5 42.1667 331.5 48.8333 331.5 55.5C327.881 55.5358 324.376 53.2943 322.887 50.0093C324.083 52.5818 325.281 55.1587 326.479 57.7357C334.115 74.1588 341.75 90.5818 349.385 107.005C348.029 104.137 348.248 100.591 349.986 97.8985C351.693 95.1896 354.796 93.4824 358 93.5C340.333 93.5 322.667 93.5 305 93.5C308.204 93.4823 311.307 95.1897 313.009 97.8907C314.752 100.591 314.971 104.137 313.615 107.005C321.25 90.5818 328.885 74.1588 336.521 57.7357C337.719 55.1588 338.917 52.5818 340.115 50.0048C338.624 53.2943 335.119 55.5358 331.5 55.5ZM331.5 35.5V55.5L331.5 35.5L331.5 35.5Z" fill="#F4FAFF" mask="url(#path-5-inside-3_95_804)"/>
</svg>
